# xmcd
#
# Track frame offsets: 
#        150
#        13560
#        27570
#        48114
#        62458
#        78315
#        91822
#        105552
#        123749
#        134308
#        151672
#        170890
#        192384
#        216490
#
# Disc length: 3006 seconds
#
# Revision: 0
# Processed by: cddbd v1.5.2PL0 Copyright (c) Steve Scherf et al.
# Submitted via: ExactAudioCopyFreeDBPlugin 1.0
#
DISCID=b90bbc0e
DTITLE=The Sacred Shakers - Live
DYEAR=2014
DGENRE=Gospel
TTITLE0=All Night, All Day
TTITLE1=Take Me In Your Lifeboat
TTITLE2=Lord, I Am The True Vine
TTITLE3=Morning Train
TTITLE4=Satan Your Kingdom Must Come Down
TTITLE5=I'm Tired
TTITLE6=Belshazzar
TTITLE7=Won't You Come And Sing For Me
TTITLE8=I'll Remember You In My Prayers
TTITLE9=You Better Quit Drinking Shine
TTITLE10=You Got To Move
TTITLE11=Run On
TTITLE12=Little Black Train
TTITLE13=When I Get Home I'm Gonna Be Satisfied
EXTD=
EXTT0=
EXTT1=
EXTT2=
EXTT3=
EXTT4=
EXTT5=
EXTT6=
EXTT7=
EXTT8=
EXTT9=
EXTT10=
EXTT11=
EXTT12=
EXTT13=
PLAYORDER=
